<svg width="389" height="86" viewBox="0 0 389 86" fill="none" xmlns="http://www.w3.org/2000/svg">
<path d="M106.074 83.136H54.4941V80.2222H60.5696V41.227H46.0007V80.2222H52.4482V83.136H0V80.2222H9.79529V2.91379H0V0H52.4482V2.91379H46.0007V38.4372H60.5696V2.91379H54.4941V0H106.074V2.91379H96.1551V80.2222H106.074V83.136Z" fill="#4CB482"/>
<path d="M200.174 2.91379C195.999 3.2031 192.775 5.31095 190.502 9.23733C188.229 13.1637 187.093 18.4953 187.093 25.2322V61.9335C187.093 69.001 184.427 74.7666 179.095 79.2303C173.805 83.694 165.973 85.9258 155.599 85.9258C148.201 85.9258 141.671 85.0992 136.008 83.446C130.387 81.8341 126.275 79.6849 123.671 76.9984C121.109 74.2706 119.455 71.6668 118.712 69.187C118.009 66.7072 117.658 62.7601 117.658 57.3459V2.91379H107.738V0H162.604V2.91379H153.863V69.435C153.863 73.196 154.132 75.7379 154.669 77.0604C155.248 78.3417 156.281 79.3129 157.769 79.9742C159.257 80.6355 160.951 80.9662 162.852 80.9662C167.399 80.9662 172.028 79.3749 176.739 76.1925C181.451 73.0101 183.807 67.8851 183.807 60.8176V28.7659C183.807 20.3345 182.732 13.9283 180.583 9.54731C178.475 5.12496 174.466 2.91379 168.556 2.91379V0H200.174V2.91379Z" fill="#4CB482"/>
<path d="M199.544 0H262.469C275.984 0 285.78 4.42235 291.855 13.267C297.931 22.1117 300.968 31.3077 300.968 40.8551C300.968 51.0223 297.807 60.611 291.483 69.621C285.201 78.631 276.46 83.136 265.259 83.136H199.544V80.2222H209.153V2.91379H199.544V0ZM260.981 68.3811V14.6929C260.981 9.81596 260.527 6.63352 259.617 5.14563C258.708 3.65773 256.063 2.91379 251.682 2.91379H245.358V80.2222H250.442C254.534 80.2222 257.303 79.4576 258.749 77.9284C260.237 76.3992 260.981 73.2167 260.981 68.3811Z" fill="#4CB482"/>
<path d="M388.992 2.91379C387.504 3.57507 385.83 4.60833 383.971 6.01357C382.152 7.37747 380.251 9.38199 378.267 12.0271C376.324 14.6309 373.948 18.4747 371.137 23.5583L360.66 42.2809V80.2222H371.881V83.136H314.845V80.2222H324.889V50.7743L298.975 2.91379H293.643V0H348.633V2.91379H339.582L358.924 38.4372C365.454 26.7821 369.154 19.9626 370.022 17.9787C370.889 15.9948 371.323 14.011 371.323 12.0271C371.323 10.6632 371.013 9.258 370.393 7.81144C369.774 6.36487 368.823 5.20762 367.542 4.33969C366.26 3.43042 363.967 2.95512 360.66 2.91379V0H388.992V2.91379Z" fill="#4CB482"/>
<mask id="path-2-outside-1" maskUnits="userSpaceOnUse" x="50.1909" y="21.5637" width="275" height="29" fill="black">
<rect fill="white" x="50.1909" y="21.5637" width="275" height="29"/>
<path d="M60.9448 24.7063V34.6379H61.5073C64.2378 34.6379 65.7378 33.2493 66.0073 30.4719H67.3081V40.1926H66.1655C66.0835 38.9973 65.7026 37.9661 65.0229 37.0989C64.355 36.2317 63.1831 35.7981 61.5073 35.7981H60.9448V45.9758H64.3198V47.136H52.1909V45.9758H55.1792V24.7063H52.1909V23.5637H71.9487L72.1421 30.7532H70.9116C70.0913 26.7219 68.0054 24.7063 64.6538 24.7063H60.9448Z"/>
<path d="M78.6636 32.7747V36.6594H78.7339C79.0151 35.2766 79.478 34.2512 80.1226 33.5833C80.7671 32.9036 81.4819 32.5637 82.2671 32.5637C83.0288 32.5637 83.6499 32.8391 84.1304 33.3899C84.6108 33.929 84.8511 34.5969 84.8511 35.3938C84.8511 36.0735 84.6694 36.6243 84.3062 37.0461C83.9429 37.4563 83.5034 37.6614 82.9878 37.6614C82.4722 37.6614 82.0269 37.468 81.6519 37.0813C81.2886 36.6946 81.1069 36.2668 81.1069 35.7981C81.1069 35.2122 81.2065 34.802 81.4058 34.5676C81.6167 34.3333 81.7222 34.1809 81.7222 34.1106C81.7222 33.9817 81.6284 33.9172 81.4409 33.9172C80.855 33.9172 80.2925 34.4915 79.7534 35.6399C79.2261 36.7883 78.9624 38.6516 78.9624 41.2297V46.0637H81.5815V47.136H72.3354V46.0637H74.1636V34.0754H72.3354V32.9856H74.6733C75.9155 32.9856 76.8296 32.9504 77.4155 32.8801L78.0483 32.7747H78.6636Z"/>
<path d="M95.5737 39.0676V35.9036C95.5737 35.0481 95.4683 34.4446 95.2573 34.093C95.0464 33.7415 94.5073 33.5657 93.6401 33.5657C92.9487 33.5657 92.4097 33.6711 92.0229 33.8821C91.6362 34.0813 91.4429 34.2864 91.4429 34.4973C91.4429 34.6379 91.5776 34.8489 91.8472 35.1301C92.1284 35.4114 92.269 35.7629 92.269 36.1848C92.269 36.7942 92.0405 37.3215 91.5835 37.7668C91.1265 38.2004 90.5522 38.4172 89.8608 38.4172C89.228 38.4172 88.6831 38.2122 88.2261 37.802C87.769 37.3801 87.5405 36.8704 87.5405 36.2727C87.5405 35.2415 88.1499 34.3684 89.3687 33.6536C90.5991 32.927 92.2983 32.5637 94.4663 32.5637C96.1421 32.5637 97.5425 32.7747 98.6675 33.1965C99.8042 33.6184 100.373 34.5676 100.373 36.0442V43.4622C100.373 44.7395 100.73 45.3782 101.445 45.3782C101.644 45.3782 101.919 45.2668 102.271 45.0442L102.746 45.8352C101.75 46.9954 100.595 47.5754 99.2827 47.5754C97.9116 47.5754 96.7632 46.8665 95.8374 45.4485C94.3022 46.8665 92.5972 47.5754 90.7222 47.5754C89.4565 47.5754 88.4604 47.2473 87.7339 46.5911C87.0073 45.9231 86.644 45.0969 86.644 44.1125C86.644 40.9836 89.6206 39.302 95.5737 39.0676ZM95.5737 42.2844V39.9993C93.9917 40.0579 92.8901 40.3098 92.269 40.7551C91.6479 41.1887 91.3374 41.9211 91.3374 42.9524C91.3374 43.7493 91.5308 44.3762 91.9175 44.8333C92.3042 45.2903 92.8022 45.5188 93.4116 45.5188C94.103 45.5188 94.6362 45.2903 95.0112 44.8333C95.3862 44.3762 95.5737 43.5266 95.5737 42.2844Z"/>
<path d="M110.708 32.5637V35.552H110.779C112.021 33.5598 113.761 32.5637 116 32.5637C116.996 32.5637 117.869 32.7747 118.619 33.1965C119.369 33.6184 119.843 34.052 120.042 34.4973C120.253 34.9309 120.359 35.593 120.359 36.4836V46.0637H122.363V47.136H113.521V46.0637H115.56V36.22C115.56 35.3293 115.437 34.7493 115.191 34.4797C114.957 34.2102 114.623 34.0754 114.189 34.0754C113.603 34.0754 112.876 34.4446 112.009 35.1829C111.142 35.9211 110.708 37.2161 110.708 39.0676V46.0637H112.765V47.136H103.871V46.0637H105.91V34.0754H103.906V32.9856H105.189C106.349 32.9856 107.498 32.9153 108.634 32.7747L110.199 32.5637H110.708Z"/>
<path d="M136.882 42.4954H137.849C137.662 44.1008 136.964 45.3489 135.757 46.2395C134.562 47.1301 133.173 47.5754 131.591 47.5754C129.458 47.5754 127.625 46.8606 126.089 45.4309C124.566 43.9895 123.804 42.2551 123.804 40.2278C123.804 38.177 124.583 36.3899 126.142 34.8665C127.712 33.3313 129.611 32.5637 131.837 32.5637C133.396 32.5637 134.732 32.9387 135.845 33.6887C136.97 34.427 137.533 35.3938 137.533 36.5891C137.533 37.2219 137.304 37.7668 136.847 38.2239C136.39 38.6692 135.787 38.8918 135.037 38.8918C134.369 38.8918 133.8 38.6692 133.332 38.2239C132.863 37.7786 132.628 37.2219 132.628 36.554C132.628 35.675 132.939 35.0715 133.56 34.7434C133.806 34.6028 133.929 34.4387 133.929 34.2512C133.929 34.052 133.73 33.8879 133.332 33.759C132.933 33.6301 132.482 33.5657 131.978 33.5657C131.099 33.5657 130.425 33.8762 129.957 34.4973C129.488 35.1184 129.253 36.7766 129.253 39.4719C129.253 42.2844 129.412 44.1418 129.728 45.0442C130.044 45.9348 130.853 46.3801 132.154 46.3801C134.544 46.3801 136.121 45.0852 136.882 42.4954Z"/>
<path d="M140.468 26.552C140.468 25.8372 140.714 25.2336 141.207 24.7415C141.71 24.2375 142.314 23.9856 143.017 23.9856C143.732 23.9856 144.341 24.2375 144.845 24.7415C145.361 25.2454 145.619 25.8489 145.619 26.552C145.619 27.2551 145.361 27.8645 144.845 28.3801C144.341 28.884 143.732 29.136 143.017 29.136C142.314 29.136 141.71 28.884 141.207 28.3801C140.714 27.8645 140.468 27.2551 140.468 26.552ZM145.583 32.5637V46.0637H146.955V47.136H139.097V46.0637H140.785V34.0754H139.097V32.9856H141.33C142.49 32.9856 143.462 32.9153 144.248 32.7747C145.033 32.634 145.478 32.5637 145.583 32.5637Z"/>
<path d="M159.523 32.5637V36.9407H158.451C157.794 34.7375 156.376 33.636 154.197 33.636C153.376 33.636 152.667 33.8352 152.07 34.2336C151.472 34.6204 151.173 35.095 151.173 35.6575C151.173 36.1379 151.402 36.5071 151.859 36.7649C152.328 37.0227 153.511 37.2454 155.41 37.4329C157.308 37.6204 158.65 38.1243 159.435 38.9446C160.22 39.7649 160.613 40.8137 160.613 42.0911C160.613 43.6965 160.115 45.0149 159.119 46.0461C158.134 47.0657 156.798 47.5754 155.111 47.5754C153.447 47.5754 152.076 47.0833 150.998 46.0989L149.89 46.9954H149.082V41.845H150.136C150.898 44.8918 152.568 46.4153 155.146 46.4153C156.072 46.4153 156.869 46.1985 157.537 45.7649C158.216 45.3313 158.556 44.7805 158.556 44.1125C158.556 43.6438 158.375 43.2629 158.011 42.97C157.66 42.677 156.81 42.4543 155.462 42.302C154.126 42.1497 153.025 41.9446 152.158 41.6868C151.291 41.4172 150.582 40.9368 150.031 40.2454C149.48 39.5422 149.205 38.6106 149.205 37.4504C149.205 36.1145 149.673 34.9661 150.611 34.0051C151.548 33.0442 152.843 32.5637 154.496 32.5637C155.667 32.5637 156.792 32.8977 157.871 33.5657L158.697 32.5637H159.523Z"/>
<path d="M175.519 42.4954H176.486C176.298 44.1008 175.601 45.3489 174.394 46.2395C173.199 47.1301 171.81 47.5754 170.228 47.5754C168.095 47.5754 166.261 46.8606 164.726 45.4309C163.203 43.9895 162.441 42.2551 162.441 40.2278C162.441 38.177 163.22 36.3899 164.779 34.8665C166.349 33.3313 168.248 32.5637 170.474 32.5637C172.033 32.5637 173.369 32.9387 174.482 33.6887C175.607 34.427 176.169 35.3938 176.169 36.5891C176.169 37.2219 175.941 37.7668 175.484 38.2239C175.027 38.6692 174.423 38.8918 173.673 38.8918C173.005 38.8918 172.437 38.6692 171.968 38.2239C171.5 37.7786 171.265 37.2219 171.265 36.554C171.265 35.675 171.576 35.0715 172.197 34.7434C172.443 34.6028 172.566 34.4387 172.566 34.2512C172.566 34.052 172.367 33.8879 171.968 33.759C171.57 33.6301 171.119 33.5657 170.615 33.5657C169.736 33.5657 169.062 33.8762 168.593 34.4973C168.125 35.1184 167.89 36.7766 167.89 39.4719C167.89 42.2844 168.048 44.1418 168.365 45.0442C168.681 45.9348 169.49 46.3801 170.791 46.3801C173.181 46.3801 174.757 45.0852 175.519 42.4954Z"/>
<path d="M185.626 47.5754C183.271 47.5754 181.39 46.8254 179.984 45.3254C178.578 43.8254 177.875 42.0793 177.875 40.0872C177.875 38.0715 178.589 36.3137 180.019 34.8137C181.449 33.3137 183.318 32.5637 185.626 32.5637C187.958 32.5637 189.839 33.3079 191.269 34.7961C192.71 36.2727 193.431 38.0364 193.431 40.0872C193.431 42.1262 192.716 43.884 191.287 45.3606C189.869 46.8372 187.982 47.5754 185.626 47.5754ZM185.626 33.4602C185.005 33.4602 184.507 33.6125 184.132 33.9172C183.757 34.2102 183.529 34.6672 183.447 35.2883C183.365 35.8977 183.324 37.4973 183.324 40.0872C183.324 42.6067 183.359 44.1536 183.429 44.7278C183.511 45.302 183.746 45.7708 184.132 46.134C184.531 46.4856 185.064 46.6614 185.732 46.6614C186.271 46.6614 186.74 46.509 187.138 46.2043C187.548 45.8879 187.794 45.3254 187.876 44.5168C187.958 43.6965 188 42.3137 188 40.3684C188 37.3333 187.882 35.4231 187.648 34.6379C187.414 33.8528 186.74 33.4602 185.626 33.4602Z"/>
<path d="M223.578 47.136H203.785V45.9758H206.984V24.7063H203.785V23.5637H216.265V24.7063H212.75V45.9758H214.982C216.224 45.9758 217.138 45.9114 217.724 45.7825C218.322 45.6536 218.978 45.2786 219.693 44.6575C220.419 44.0247 221.029 43.2336 221.521 42.2844C222.025 41.3352 222.47 40.2864 222.857 39.1379H223.947L223.578 47.136Z"/>
<path d="M239.626 39.2434H230.978V41.5286C230.978 43.3215 231.136 44.5637 231.453 45.2551C231.781 45.9348 232.525 46.2747 233.685 46.2747C234.705 46.2747 235.654 45.9465 236.533 45.2903C237.423 44.634 238.103 43.6145 238.572 42.2317H239.626C239.193 44.0129 238.39 45.3489 237.218 46.2395C236.046 47.1301 234.64 47.5754 233 47.5754C230.761 47.5754 228.968 46.8079 227.621 45.2727C226.285 43.7375 225.617 41.968 225.617 39.9641C225.617 38.0422 226.296 36.3313 227.656 34.8313C229.015 33.3196 230.714 32.5637 232.753 32.5637C234.511 32.5637 236.041 33.1145 237.341 34.2161C238.642 35.3176 239.404 36.9934 239.626 39.2434ZM230.978 38.1008H234.757V36.6243C234.757 35.3469 234.582 34.5208 234.23 34.1458C233.89 33.759 233.421 33.5657 232.824 33.5657C232.261 33.5657 231.81 33.7356 231.47 34.0754C231.142 34.4153 230.978 35.2766 230.978 36.6594V38.1008Z"/>
<path d="M251.632 32.5637V36.9407H250.56C249.904 34.7375 248.486 33.636 246.306 33.636C245.486 33.636 244.777 33.8352 244.179 34.2336C243.582 34.6204 243.283 35.095 243.283 35.6575C243.283 36.1379 243.511 36.5071 243.968 36.7649C244.437 37.0227 245.621 37.2454 247.519 37.4329C249.417 37.6204 250.759 38.1243 251.544 38.9446C252.33 39.7649 252.722 40.8137 252.722 42.0911C252.722 43.6965 252.224 45.0149 251.228 46.0461C250.244 47.0657 248.908 47.5754 247.22 47.5754C245.556 47.5754 244.185 47.0833 243.107 46.0989L242 46.9954H241.191V41.845H242.246C243.007 44.8918 244.677 46.4153 247.255 46.4153C248.181 46.4153 248.978 46.1985 249.646 45.7649C250.326 45.3313 250.666 44.7805 250.666 44.1125C250.666 43.6438 250.484 43.2629 250.121 42.97C249.769 42.677 248.919 42.4543 247.572 42.302C246.236 42.1497 245.134 41.9446 244.267 41.6868C243.4 41.4172 242.691 40.9368 242.14 40.2454C241.589 39.5422 241.314 38.6106 241.314 37.4504C241.314 36.1145 241.783 34.9661 242.72 34.0051C243.658 33.0442 244.953 32.5637 246.605 32.5637C247.777 32.5637 248.902 32.8977 249.98 33.5657L250.806 32.5637H251.632Z"/>
<path d="M267.628 42.4954H268.595C268.408 44.1008 267.71 45.3489 266.503 46.2395C265.308 47.1301 263.919 47.5754 262.337 47.5754C260.205 47.5754 258.371 46.8606 256.835 45.4309C255.312 43.9895 254.55 42.2551 254.55 40.2278C254.55 38.177 255.33 36.3899 256.888 34.8665C258.458 33.3313 260.357 32.5637 262.583 32.5637C264.142 32.5637 265.478 32.9387 266.591 33.6887C267.716 34.427 268.279 35.3938 268.279 36.5891C268.279 37.2219 268.05 37.7668 267.593 38.2239C267.136 38.6692 266.533 38.8918 265.783 38.8918C265.115 38.8918 264.546 38.6692 264.078 38.2239C263.609 37.7786 263.375 37.2219 263.375 36.554C263.375 35.675 263.685 35.0715 264.306 34.7434C264.552 34.6028 264.675 34.4387 264.675 34.2512C264.675 34.052 264.476 33.8879 264.078 33.759C263.679 33.6301 263.228 33.5657 262.724 33.5657C261.845 33.5657 261.171 33.8762 260.703 34.4973C260.234 35.1184 260 36.7766 260 39.4719C260 42.2844 260.158 44.1418 260.474 45.0442C260.791 45.9348 261.599 46.3801 262.9 46.3801C265.291 46.3801 266.867 45.0852 267.628 42.4954Z"/>
<path d="M278.843 39.0676V35.9036C278.843 35.0481 278.738 34.4446 278.527 34.093C278.316 33.7415 277.777 33.5657 276.91 33.5657C276.218 33.5657 275.679 33.6711 275.292 33.8821C274.906 34.0813 274.712 34.2864 274.712 34.4973C274.712 34.6379 274.847 34.8489 275.117 35.1301C275.398 35.4114 275.539 35.7629 275.539 36.1848C275.539 36.7942 275.31 37.3215 274.853 37.7668C274.396 38.2004 273.822 38.4172 273.13 38.4172C272.498 38.4172 271.953 38.2122 271.496 37.802C271.039 37.3801 270.81 36.8704 270.81 36.2727C270.81 35.2415 271.419 34.3684 272.638 33.6536C273.869 32.927 275.568 32.5637 277.736 32.5637C279.412 32.5637 280.812 32.7747 281.937 33.1965C283.074 33.6184 283.642 34.5676 283.642 36.0442V43.4622C283.642 44.7395 284 45.3782 284.714 45.3782C284.914 45.3782 285.189 45.2668 285.541 45.0442L286.015 45.8352C285.019 46.9954 283.865 47.5754 282.552 47.5754C281.181 47.5754 280.033 46.8665 279.107 45.4485C277.572 46.8665 275.867 47.5754 273.992 47.5754C272.726 47.5754 271.73 47.2473 271.003 46.5911C270.277 45.9231 269.914 45.0969 269.914 44.1125C269.914 40.9836 272.89 39.302 278.843 39.0676ZM278.843 42.2844V39.9993C277.261 40.0579 276.16 40.3098 275.539 40.7551C274.917 41.1887 274.607 41.9211 274.607 42.9524C274.607 43.7493 274.8 44.3762 275.187 44.8333C275.574 45.2903 276.072 45.5188 276.681 45.5188C277.373 45.5188 277.906 45.2903 278.281 44.8333C278.656 44.3762 278.843 43.5266 278.843 42.2844Z"/>
<path d="M293.978 32.5637V35.552H294.048C295.291 33.5598 297.031 32.5637 299.269 32.5637C300.265 32.5637 301.138 32.7747 301.888 33.1965C302.638 33.6184 303.113 34.052 303.312 34.4973C303.523 34.9309 303.628 35.593 303.628 36.4836V46.0637H305.632V47.136H296.791V46.0637H298.83V36.22C298.83 35.3293 298.707 34.7493 298.46 34.4797C298.226 34.2102 297.892 34.0754 297.458 34.0754C296.873 34.0754 296.146 34.4446 295.279 35.1829C294.412 35.9211 293.978 37.2161 293.978 39.0676V46.0637H296.035V47.136H287.14V46.0637H289.179V34.0754H287.175V32.9856H288.458C289.619 32.9856 290.767 32.9153 291.904 32.7747L293.468 32.5637H293.978Z"/>
<path d="M314.896 47.5754C312.541 47.5754 310.66 46.8254 309.253 45.3254C307.847 43.8254 307.144 42.0793 307.144 40.0872C307.144 38.0715 307.859 36.3137 309.289 34.8137C310.718 33.3137 312.587 32.5637 314.896 32.5637C317.228 32.5637 319.109 33.3079 320.539 34.7961C321.98 36.2727 322.701 38.0364 322.701 40.0872C322.701 42.1262 321.986 43.884 320.556 45.3606C319.138 46.8372 317.251 47.5754 314.896 47.5754ZM314.896 33.4602C314.275 33.4602 313.777 33.6125 313.402 33.9172C313.027 34.2102 312.798 34.6672 312.716 35.2883C312.634 35.8977 312.593 37.4973 312.593 40.0872C312.593 42.6067 312.628 44.1536 312.699 44.7278C312.781 45.302 313.015 45.7708 313.402 46.134C313.8 46.4856 314.333 46.6614 315.001 46.6614C315.541 46.6614 316.009 46.509 316.408 46.2043C316.818 45.8879 317.064 45.3254 317.146 44.5168C317.228 43.6965 317.269 42.3137 317.269 40.3684C317.269 37.3333 317.152 35.4231 316.917 34.6379C316.683 33.8528 316.009 33.4602 314.896 33.4602Z"/>
</mask>
<path d="M60.9448 24.7063V34.6379H61.5073C64.2378 34.6379 65.7378 33.2493 66.0073 30.4719H67.3081V40.1926H66.1655C66.0835 38.9973 65.7026 37.9661 65.0229 37.0989C64.355 36.2317 63.1831 35.7981 61.5073 35.7981H60.9448V45.9758H64.3198V47.136H52.1909V45.9758H55.1792V24.7063H52.1909V23.5637H71.9487L72.1421 30.7532H70.9116C70.0913 26.7219 68.0054 24.7063 64.6538 24.7063H60.9448Z" fill="white"/>
<path d="M78.6636 32.7747V36.6594H78.7339C79.0151 35.2766 79.478 34.2512 80.1226 33.5833C80.7671 32.9036 81.4819 32.5637 82.2671 32.5637C83.0288 32.5637 83.6499 32.8391 84.1304 33.3899C84.6108 33.929 84.8511 34.5969 84.8511 35.3938C84.8511 36.0735 84.6694 36.6243 84.3062 37.0461C83.9429 37.4563 83.5034 37.6614 82.9878 37.6614C82.4722 37.6614 82.0269 37.468 81.6519 37.0813C81.2886 36.6946 81.1069 36.2668 81.1069 35.7981C81.1069 35.2122 81.2065 34.802 81.4058 34.5676C81.6167 34.3333 81.7222 34.1809 81.7222 34.1106C81.7222 33.9817 81.6284 33.9172 81.4409 33.9172C80.855 33.9172 80.2925 34.4915 79.7534 35.6399C79.2261 36.7883 78.9624 38.6516 78.9624 41.2297V46.0637H81.5815V47.136H72.3354V46.0637H74.1636V34.0754H72.3354V32.9856H74.6733C75.9155 32.9856 76.8296 32.9504 77.4155 32.8801L78.0483 32.7747H78.6636Z" fill="white"/>
<path d="M95.5737 39.0676V35.9036C95.5737 35.0481 95.4683 34.4446 95.2573 34.093C95.0464 33.7415 94.5073 33.5657 93.6401 33.5657C92.9487 33.5657 92.4097 33.6711 92.0229 33.8821C91.6362 34.0813 91.4429 34.2864 91.4429 34.4973C91.4429 34.6379 91.5776 34.8489 91.8472 35.1301C92.1284 35.4114 92.269 35.7629 92.269 36.1848C92.269 36.7942 92.0405 37.3215 91.5835 37.7668C91.1265 38.2004 90.5522 38.4172 89.8608 38.4172C89.228 38.4172 88.6831 38.2122 88.2261 37.802C87.769 37.3801 87.5405 36.8704 87.5405 36.2727C87.5405 35.2415 88.1499 34.3684 89.3687 33.6536C90.5991 32.927 92.2983 32.5637 94.4663 32.5637C96.1421 32.5637 97.5425 32.7747 98.6675 33.1965C99.8042 33.6184 100.373 34.5676 100.373 36.0442V43.4622C100.373 44.7395 100.73 45.3782 101.445 45.3782C101.644 45.3782 101.919 45.2668 102.271 45.0442L102.746 45.8352C101.75 46.9954 100.595 47.5754 99.2827 47.5754C97.9116 47.5754 96.7632 46.8665 95.8374 45.4485C94.3022 46.8665 92.5972 47.5754 90.7222 47.5754C89.4565 47.5754 88.4604 47.2473 87.7339 46.5911C87.0073 45.9231 86.644 45.0969 86.644 44.1125C86.644 40.9836 89.6206 39.302 95.5737 39.0676ZM95.5737 42.2844V39.9993C93.9917 40.0579 92.8901 40.3098 92.269 40.7551C91.6479 41.1887 91.3374 41.9211 91.3374 42.9524C91.3374 43.7493 91.5308 44.3762 91.9175 44.8333C92.3042 45.2903 92.8022 45.5188 93.4116 45.5188C94.103 45.5188 94.6362 45.2903 95.0112 44.8333C95.3862 44.3762 95.5737 43.5266 95.5737 42.2844Z" fill="white"/>
<path d="M110.708 32.5637V35.552H110.779C112.021 33.5598 113.761 32.5637 116 32.5637C116.996 32.5637 117.869 32.7747 118.619 33.1965C119.369 33.6184 119.843 34.052 120.042 34.4973C120.253 34.9309 120.359 35.593 120.359 36.4836V46.0637H122.363V47.136H113.521V46.0637H115.56V36.22C115.56 35.3293 115.437 34.7493 115.191 34.4797C114.957 34.2102 114.623 34.0754 114.189 34.0754C113.603 34.0754 112.876 34.4446 112.009 35.1829C111.142 35.9211 110.708 37.2161 110.708 39.0676V46.0637H112.765V47.136H103.871V46.0637H105.91V34.0754H103.906V32.9856H105.189C106.349 32.9856 107.498 32.9153 108.634 32.7747L110.199 32.5637H110.708Z" fill="white"/>
<path d="M136.882 42.4954H137.849C137.662 44.1008 136.964 45.3489 135.757 46.2395C134.562 47.1301 133.173 47.5754 131.591 47.5754C129.458 47.5754 127.625 46.8606 126.089 45.4309C124.566 43.9895 123.804 42.2551 123.804 40.2278C123.804 38.177 124.583 36.3899 126.142 34.8665C127.712 33.3313 129.611 32.5637 131.837 32.5637C133.396 32.5637 134.732 32.9387 135.845 33.6887C136.97 34.427 137.533 35.3938 137.533 36.5891C137.533 37.2219 137.304 37.7668 136.847 38.2239C136.39 38.6692 135.787 38.8918 135.037 38.8918C134.369 38.8918 133.8 38.6692 133.332 38.2239C132.863 37.7786 132.628 37.2219 132.628 36.554C132.628 35.675 132.939 35.0715 133.56 34.7434C133.806 34.6028 133.929 34.4387 133.929 34.2512C133.929 34.052 133.73 33.8879 133.332 33.759C132.933 33.6301 132.482 33.5657 131.978 33.5657C131.099 33.5657 130.425 33.8762 129.957 34.4973C129.488 35.1184 129.253 36.7766 129.253 39.4719C129.253 42.2844 129.412 44.1418 129.728 45.0442C130.044 45.9348 130.853 46.3801 132.154 46.3801C134.544 46.3801 136.121 45.0852 136.882 42.4954Z" fill="white"/>
<path d="M140.468 26.552C140.468 25.8372 140.714 25.2336 141.207 24.7415C141.71 24.2375 142.314 23.9856 143.017 23.9856C143.732 23.9856 144.341 24.2375 144.845 24.7415C145.361 25.2454 145.619 25.8489 145.619 26.552C145.619 27.2551 145.361 27.8645 144.845 28.3801C144.341 28.884 143.732 29.136 143.017 29.136C142.314 29.136 141.71 28.884 141.207 28.3801C140.714 27.8645 140.468 27.2551 140.468 26.552ZM145.583 32.5637V46.0637H146.955V47.136H139.097V46.0637H140.785V34.0754H139.097V32.9856H141.33C142.49 32.9856 143.462 32.9153 144.248 32.7747C145.033 32.634 145.478 32.5637 145.583 32.5637Z" fill="white"/>
<path d="M159.523 32.5637V36.9407H158.451C157.794 34.7375 156.376 33.636 154.197 33.636C153.376 33.636 152.667 33.8352 152.07 34.2336C151.472 34.6204 151.173 35.095 151.173 35.6575C151.173 36.1379 151.402 36.5071 151.859 36.7649C152.328 37.0227 153.511 37.2454 155.41 37.4329C157.308 37.6204 158.65 38.1243 159.435 38.9446C160.22 39.7649 160.613 40.8137 160.613 42.0911C160.613 43.6965 160.115 45.0149 159.119 46.0461C158.134 47.0657 156.798 47.5754 155.111 47.5754C153.447 47.5754 152.076 47.0833 150.998 46.0989L149.89 46.9954H149.082V41.845H150.136C150.898 44.8918 152.568 46.4153 155.146 46.4153C156.072 46.4153 156.869 46.1985 157.537 45.7649C158.216 45.3313 158.556 44.7805 158.556 44.1125C158.556 43.6438 158.375 43.2629 158.011 42.97C157.66 42.677 156.81 42.4543 155.462 42.302C154.126 42.1497 153.025 41.9446 152.158 41.6868C151.291 41.4172 150.582 40.9368 150.031 40.2454C149.48 39.5422 149.205 38.6106 149.205 37.4504C149.205 36.1145 149.673 34.9661 150.611 34.0051C151.548 33.0442 152.843 32.5637 154.496 32.5637C155.667 32.5637 156.792 32.8977 157.871 33.5657L158.697 32.5637H159.523Z" fill="white"/>
<path d="M175.519 42.4954H176.486C176.298 44.1008 175.601 45.3489 174.394 46.2395C173.199 47.1301 171.81 47.5754 170.228 47.5754C168.095 47.5754 166.261 46.8606 164.726 45.4309C163.203 43.9895 162.441 42.2551 162.441 40.2278C162.441 38.177 163.22 36.3899 164.779 34.8665C166.349 33.3313 168.248 32.5637 170.474 32.5637C172.033 32.5637 173.369 32.9387 174.482 33.6887C175.607 34.427 176.169 35.3938 176.169 36.5891C176.169 37.2219 175.941 37.7668 175.484 38.2239C175.027 38.6692 174.423 38.8918 173.673 38.8918C173.005 38.8918 172.437 38.6692 171.968 38.2239C171.5 37.7786 171.265 37.2219 171.265 36.554C171.265 35.675 171.576 35.0715 172.197 34.7434C172.443 34.6028 172.566 34.4387 172.566 34.2512C172.566 34.052 172.367 33.8879 171.968 33.759C171.57 33.6301 171.119 33.5657 170.615 33.5657C169.736 33.5657 169.062 33.8762 168.593 34.4973C168.125 35.1184 167.89 36.7766 167.89 39.4719C167.89 42.2844 168.048 44.1418 168.365 45.0442C168.681 45.9348 169.49 46.3801 170.791 46.3801C173.181 46.3801 174.757 45.0852 175.519 42.4954Z" fill="white"/>
<path d="M185.626 47.5754C183.271 47.5754 181.39 46.8254 179.984 45.3254C178.578 43.8254 177.875 42.0793 177.875 40.0872C177.875 38.0715 178.589 36.3137 180.019 34.8137C181.449 33.3137 183.318 32.5637 185.626 32.5637C187.958 32.5637 189.839 33.3079 191.269 34.7961C192.71 36.2727 193.431 38.0364 193.431 40.0872C193.431 42.1262 192.716 43.884 191.287 45.3606C189.869 46.8372 187.982 47.5754 185.626 47.5754ZM185.626 33.4602C185.005 33.4602 184.507 33.6125 184.132 33.9172C183.757 34.2102 183.529 34.6672 183.447 35.2883C183.365 35.8977 183.324 37.4973 183.324 40.0872C183.324 42.6067 183.359 44.1536 183.429 44.7278C183.511 45.302 183.746 45.7708 184.132 46.134C184.531 46.4856 185.064 46.6614 185.732 46.6614C186.271 46.6614 186.74 46.509 187.138 46.2043C187.548 45.8879 187.794 45.3254 187.876 44.5168C187.958 43.6965 188 42.3137 188 40.3684C188 37.3333 187.882 35.4231 187.648 34.6379C187.414 33.8528 186.74 33.4602 185.626 33.4602Z" fill="white"/>
<path d="M223.578 47.136H203.785V45.9758H206.984V24.7063H203.785V23.5637H216.265V24.7063H212.75V45.9758H214.982C216.224 45.9758 217.138 45.9114 217.724 45.7825C218.322 45.6536 218.978 45.2786 219.693 44.6575C220.419 44.0247 221.029 43.2336 221.521 42.2844C222.025 41.3352 222.47 40.2864 222.857 39.1379H223.947L223.578 47.136Z" fill="white"/>
<path d="M239.626 39.2434H230.978V41.5286C230.978 43.3215 231.136 44.5637 231.453 45.2551C231.781 45.9348 232.525 46.2747 233.685 46.2747C234.705 46.2747 235.654 45.9465 236.533 45.2903C237.423 44.634 238.103 43.6145 238.572 42.2317H239.626C239.193 44.0129 238.39 45.3489 237.218 46.2395C236.046 47.1301 234.64 47.5754 233 47.5754C230.761 47.5754 228.968 46.8079 227.621 45.2727C226.285 43.7375 225.617 41.968 225.617 39.9641C225.617 38.0422 226.296 36.3313 227.656 34.8313C229.015 33.3196 230.714 32.5637 232.753 32.5637C234.511 32.5637 236.041 33.1145 237.341 34.2161C238.642 35.3176 239.404 36.9934 239.626 39.2434ZM230.978 38.1008H234.757V36.6243C234.757 35.3469 234.582 34.5208 234.23 34.1458C233.89 33.759 233.421 33.5657 232.824 33.5657C232.261 33.5657 231.81 33.7356 231.47 34.0754C231.142 34.4153 230.978 35.2766 230.978 36.6594V38.1008Z" fill="white"/>
<path d="M251.632 32.5637V36.9407H250.56C249.904 34.7375 248.486 33.636 246.306 33.636C245.486 33.636 244.777 33.8352 244.179 34.2336C243.582 34.6204 243.283 35.095 243.283 35.6575C243.283 36.1379 243.511 36.5071 243.968 36.7649C244.437 37.0227 245.621 37.2454 247.519 37.4329C249.417 37.6204 250.759 38.1243 251.544 38.9446C252.33 39.7649 252.722 40.8137 252.722 42.0911C252.722 43.6965 252.224 45.0149 251.228 46.0461C250.244 47.0657 248.908 47.5754 247.22 47.5754C245.556 47.5754 244.185 47.0833 243.107 46.0989L242 46.9954H241.191V41.845H242.246C243.007 44.8918 244.677 46.4153 247.255 46.4153C248.181 46.4153 248.978 46.1985 249.646 45.7649C250.326 45.3313 250.666 44.7805 250.666 44.1125C250.666 43.6438 250.484 43.2629 250.121 42.97C249.769 42.677 248.919 42.4543 247.572 42.302C246.236 42.1497 245.134 41.9446 244.267 41.6868C243.4 41.4172 242.691 40.9368 242.14 40.2454C241.589 39.5422 241.314 38.6106 241.314 37.4504C241.314 36.1145 241.783 34.9661 242.72 34.0051C243.658 33.0442 244.953 32.5637 246.605 32.5637C247.777 32.5637 248.902 32.8977 249.98 33.5657L250.806 32.5637H251.632Z" fill="white"/>
<path d="M267.628 42.4954H268.595C268.408 44.1008 267.71 45.3489 266.503 46.2395C265.308 47.1301 263.919 47.5754 262.337 47.5754C260.205 47.5754 258.371 46.8606 256.835 45.4309C255.312 43.9895 254.55 42.2551 254.55 40.2278C254.55 38.177 255.33 36.3899 256.888 34.8665C258.458 33.3313 260.357 32.5637 262.583 32.5637C264.142 32.5637 265.478 32.9387 266.591 33.6887C267.716 34.427 268.279 35.3938 268.279 36.5891C268.279 37.2219 268.05 37.7668 267.593 38.2239C267.136 38.6692 266.533 38.8918 265.783 38.8918C265.115 38.8918 264.546 38.6692 264.078 38.2239C263.609 37.7786 263.375 37.2219 263.375 36.554C263.375 35.675 263.685 35.0715 264.306 34.7434C264.552 34.6028 264.675 34.4387 264.675 34.2512C264.675 34.052 264.476 33.8879 264.078 33.759C263.679 33.6301 263.228 33.5657 262.724 33.5657C261.845 33.5657 261.171 33.8762 260.703 34.4973C260.234 35.1184 260 36.7766 260 39.4719C260 42.2844 260.158 44.1418 260.474 45.0442C260.791 45.9348 261.599 46.3801 262.9 46.3801C265.291 46.3801 266.867 45.0852 267.628 42.4954Z" fill="white"/>
<path d="M278.843 39.0676V35.9036C278.843 35.0481 278.738 34.4446 278.527 34.093C278.316 33.7415 277.777 33.5657 276.91 33.5657C276.218 33.5657 275.679 33.6711 275.292 33.8821C274.906 34.0813 274.712 34.2864 274.712 34.4973C274.712 34.6379 274.847 34.8489 275.117 35.1301C275.398 35.4114 275.539 35.7629 275.539 36.1848C275.539 36.7942 275.31 37.3215 274.853 37.7668C274.396 38.2004 273.822 38.4172 273.13 38.4172C272.498 38.4172 271.953 38.2122 271.496 37.802C271.039 37.3801 270.81 36.8704 270.81 36.2727C270.81 35.2415 271.419 34.3684 272.638 33.6536C273.869 32.927 275.568 32.5637 277.736 32.5637C279.412 32.5637 280.812 32.7747 281.937 33.1965C283.074 33.6184 283.642 34.5676 283.642 36.0442V43.4622C283.642 44.7395 284 45.3782 284.714 45.3782C284.914 45.3782 285.189 45.2668 285.541 45.0442L286.015 45.8352C285.019 46.9954 283.865 47.5754 282.552 47.5754C281.181 47.5754 280.033 46.8665 279.107 45.4485C277.572 46.8665 275.867 47.5754 273.992 47.5754C272.726 47.5754 271.73 47.2473 271.003 46.5911C270.277 45.9231 269.914 45.0969 269.914 44.1125C269.914 40.9836 272.89 39.302 278.843 39.0676ZM278.843 42.2844V39.9993C277.261 40.0579 276.16 40.3098 275.539 40.7551C274.917 41.1887 274.607 41.9211 274.607 42.9524C274.607 43.7493 274.8 44.3762 275.187 44.8333C275.574 45.2903 276.072 45.5188 276.681 45.5188C277.373 45.5188 277.906 45.2903 278.281 44.8333C278.656 44.3762 278.843 43.5266 278.843 42.2844Z" fill="white"/>
<path d="M293.978 32.5637V35.552H294.048C295.291 33.5598 297.031 32.5637 299.269 32.5637C300.265 32.5637 301.138 32.7747 301.888 33.1965C302.638 33.6184 303.113 34.052 303.312 34.4973C303.523 34.9309 303.628 35.593 303.628 36.4836V46.0637H305.632V47.136H296.791V46.0637H298.83V36.22C298.83 35.3293 298.707 34.7493 298.46 34.4797C298.226 34.2102 297.892 34.0754 297.458 34.0754C296.873 34.0754 296.146 34.4446 295.279 35.1829C294.412 35.9211 293.978 37.2161 293.978 39.0676V46.0637H296.035V47.136H287.14V46.0637H289.179V34.0754H287.175V32.9856H288.458C289.619 32.9856 290.767 32.9153 291.904 32.7747L293.468 32.5637H293.978Z" fill="white"/>
<path d="M314.896 47.5754C312.541 47.5754 310.66 46.8254 309.253 45.3254C307.847 43.8254 307.144 42.0793 307.144 40.0872C307.144 38.0715 307.859 36.3137 309.289 34.8137C310.718 33.3137 312.587 32.5637 314.896 32.5637C317.228 32.5637 319.109 33.3079 320.539 34.7961C321.98 36.2727 322.701 38.0364 322.701 40.0872C322.701 42.1262 321.986 43.884 320.556 45.3606C319.138 46.8372 317.251 47.5754 314.896 47.5754ZM314.896 33.4602C314.275 33.4602 313.777 33.6125 313.402 33.9172C313.027 34.2102 312.798 34.6672 312.716 35.2883C312.634 35.8977 312.593 37.4973 312.593 40.0872C312.593 42.6067 312.628 44.1536 312.699 44.7278C312.781 45.302 313.015 45.7708 313.402 46.134C313.8 46.4856 314.333 46.6614 315.001 46.6614C315.541 46.6614 316.009 46.509 316.408 46.2043C316.818 45.8879 317.064 45.3254 317.146 44.5168C317.228 43.6965 317.269 42.3137 317.269 40.3684C317.269 37.3333 317.152 35.4231 316.917 34.6379C316.683 33.8528 316.009 33.4602 314.896 33.4602Z" fill="white"/>
<path d="M60.9448 24.7063V34.6379H61.5073C64.2378 34.6379 65.7378 33.2493 66.0073 30.4719H67.3081V40.1926H66.1655C66.0835 38.9973 65.7026 37.9661 65.0229 37.0989C64.355 36.2317 63.1831 35.7981 61.5073 35.7981H60.9448V45.9758H64.3198V47.136H52.1909V45.9758H55.1792V24.7063H52.1909V23.5637H71.9487L72.1421 30.7532H70.9116C70.0913 26.7219 68.0054 24.7063 64.6538 24.7063H60.9448Z" stroke="black" stroke-opacity="0.2" stroke-width="4" stroke-linejoin="round" mask="url(#path-2-outside-1)"/>
<path d="M78.6636 32.7747V36.6594H78.7339C79.0151 35.2766 79.478 34.2512 80.1226 33.5833C80.7671 32.9036 81.4819 32.5637 82.2671 32.5637C83.0288 32.5637 83.6499 32.8391 84.1304 33.3899C84.6108 33.929 84.8511 34.5969 84.8511 35.3938C84.8511 36.0735 84.6694 36.6243 84.3062 37.0461C83.9429 37.4563 83.5034 37.6614 82.9878 37.6614C82.4722 37.6614 82.0269 37.468 81.6519 37.0813C81.2886 36.6946 81.1069 36.2668 81.1069 35.7981C81.1069 35.2122 81.2065 34.802 81.4058 34.5676C81.6167 34.3333 81.7222 34.1809 81.7222 34.1106C81.7222 33.9817 81.6284 33.9172 81.4409 33.9172C80.855 33.9172 80.2925 34.4915 79.7534 35.6399C79.2261 36.7883 78.9624 38.6516 78.9624 41.2297V46.0637H81.5815V47.136H72.3354V46.0637H74.1636V34.0754H72.3354V32.9856H74.6733C75.9155 32.9856 76.8296 32.9504 77.4155 32.8801L78.0483 32.7747H78.6636Z" stroke="black" stroke-opacity="0.2" stroke-width="4" stroke-linejoin="round" mask="url(#path-2-outside-1)"/>
<path d="M95.5737 39.0676V35.9036C95.5737 35.0481 95.4683 34.4446 95.2573 34.093C95.0464 33.7415 94.5073 33.5657 93.6401 33.5657C92.9487 33.5657 92.4097 33.6711 92.0229 33.8821C91.6362 34.0813 91.4429 34.2864 91.4429 34.4973C91.4429 34.6379 91.5776 34.8489 91.8472 35.1301C92.1284 35.4114 92.269 35.7629 92.269 36.1848C92.269 36.7942 92.0405 37.3215 91.5835 37.7668C91.1265 38.2004 90.5522 38.4172 89.8608 38.4172C89.228 38.4172 88.6831 38.2122 88.2261 37.802C87.769 37.3801 87.5405 36.8704 87.5405 36.2727C87.5405 35.2415 88.1499 34.3684 89.3687 33.6536C90.5991 32.927 92.2983 32.5637 94.4663 32.5637C96.1421 32.5637 97.5425 32.7747 98.6675 33.1965C99.8042 33.6184 100.373 34.5676 100.373 36.0442V43.4622C100.373 44.7395 100.73 45.3782 101.445 45.3782C101.644 45.3782 101.919 45.2668 102.271 45.0442L102.746 45.8352C101.75 46.9954 100.595 47.5754 99.2827 47.5754C97.9116 47.5754 96.7632 46.8665 95.8374 45.4485C94.3022 46.8665 92.5972 47.5754 90.7222 47.5754C89.4565 47.5754 88.4604 47.2473 87.7339 46.5911C87.0073 45.9231 86.644 45.0969 86.644 44.1125C86.644 40.9836 89.6206 39.302 95.5737 39.0676ZM95.5737 42.2844V39.9993C93.9917 40.0579 92.8901 40.3098 92.269 40.7551C91.6479 41.1887 91.3374 41.9211 91.3374 42.9524C91.3374 43.7493 91.5308 44.3762 91.9175 44.8333C92.3042 45.2903 92.8022 45.5188 93.4116 45.5188C94.103 45.5188 94.6362 45.2903 95.0112 44.8333C95.3862 44.3762 95.5737 43.5266 95.5737 42.2844Z" stroke="black" stroke-opacity="0.2" stroke-width="4" stroke-linejoin="round" mask="url(#path-2-outside-1)"/>
<path d="M110.708 32.5637V35.552H110.779C112.021 33.5598 113.761 32.5637 116 32.5637C116.996 32.5637 117.869 32.7747 118.619 33.1965C119.369 33.6184 119.843 34.052 120.042 34.4973C120.253 34.9309 120.359 35.593 120.359 36.4836V46.0637H122.363V47.136H113.521V46.0637H115.56V36.22C115.56 35.3293 115.437 34.7493 115.191 34.4797C114.957 34.2102 114.623 34.0754 114.189 34.0754C113.603 34.0754 112.876 34.4446 112.009 35.1829C111.142 35.9211 110.708 37.2161 110.708 39.0676V46.0637H112.765V47.136H103.871V46.0637H105.91V34.0754H103.906V32.9856H105.189C106.349 32.9856 107.498 32.9153 108.634 32.7747L110.199 32.5637H110.708Z" stroke="black" stroke-opacity="0.2" stroke-width="4" stroke-linejoin="round" mask="url(#path-2-outside-1)"/>
<path d="M136.882 42.4954H137.849C137.662 44.1008 136.964 45.3489 135.757 46.2395C134.562 47.1301 133.173 47.5754 131.591 47.5754C129.458 47.5754 127.625 46.8606 126.089 45.4309C124.566 43.9895 123.804 42.2551 123.804 40.2278C123.804 38.177 124.583 36.3899 126.142 34.8665C127.712 33.3313 129.611 32.5637 131.837 32.5637C133.396 32.5637 134.732 32.9387 135.845 33.6887C136.97 34.427 137.533 35.3938 137.533 36.5891C137.533 37.2219 137.304 37.7668 136.847 38.2239C136.39 38.6692 135.787 38.8918 135.037 38.8918C134.369 38.8918 133.8 38.6692 133.332 38.2239C132.863 37.7786 132.628 37.2219 132.628 36.554C132.628 35.675 132.939 35.0715 133.56 34.7434C133.806 34.6028 133.929 34.4387 133.929 34.2512C133.929 34.052 133.73 33.8879 133.332 33.759C132.933 33.6301 132.482 33.5657 131.978 33.5657C131.099 33.5657 130.425 33.8762 129.957 34.4973C129.488 35.1184 129.253 36.7766 129.253 39.4719C129.253 42.2844 129.412 44.1418 129.728 45.0442C130.044 45.9348 130.853 46.3801 132.154 46.3801C134.544 46.3801 136.121 45.0852 136.882 42.4954Z" stroke="black" stroke-opacity="0.2" stroke-width="4" stroke-linejoin="round" mask="url(#path-2-outside-1)"/>
<path d="M140.468 26.552C140.468 25.8372 140.714 25.2336 141.207 24.7415C141.71 24.2375 142.314 23.9856 143.017 23.9856C143.732 23.9856 144.341 24.2375 144.845 24.7415C145.361 25.2454 145.619 25.8489 145.619 26.552C145.619 27.2551 145.361 27.8645 144.845 28.3801C144.341 28.884 143.732 29.136 143.017 29.136C142.314 29.136 141.71 28.884 141.207 28.3801C140.714 27.8645 140.468 27.2551 140.468 26.552ZM145.583 32.5637V46.0637H146.955V47.136H139.097V46.0637H140.785V34.0754H139.097V32.9856H141.33C142.49 32.9856 143.462 32.9153 144.248 32.7747C145.033 32.634 145.478 32.5637 145.583 32.5637Z" stroke="black" stroke-opacity="0.2" stroke-width="4" stroke-linejoin="round" mask="url(#path-2-outside-1)"/>
<path d="M159.523 32.5637V36.9407H158.451C157.794 34.7375 156.376 33.636 154.197 33.636C153.376 33.636 152.667 33.8352 152.07 34.2336C151.472 34.6204 151.173 35.095 151.173 35.6575C151.173 36.1379 151.402 36.5071 151.859 36.7649C152.328 37.0227 153.511 37.2454 155.41 37.4329C157.308 37.6204 158.65 38.1243 159.435 38.9446C160.22 39.7649 160.613 40.8137 160.613 42.0911C160.613 43.6965 160.115 45.0149 159.119 46.0461C158.134 47.0657 156.798 47.5754 155.111 47.5754C153.447 47.5754 152.076 47.0833 150.998 46.0989L149.89 46.9954H149.082V41.845H150.136C150.898 44.8918 152.568 46.4153 155.146 46.4153C156.072 46.4153 156.869 46.1985 157.537 45.7649C158.216 45.3313 158.556 44.7805 158.556 44.1125C158.556 43.6438 158.375 43.2629 158.011 42.97C157.66 42.677 156.81 42.4543 155.462 42.302C154.126 42.1497 153.025 41.9446 152.158 41.6868C151.291 41.4172 150.582 40.9368 150.031 40.2454C149.48 39.5422 149.205 38.6106 149.205 37.4504C149.205 36.1145 149.673 34.9661 150.611 34.0051C151.548 33.0442 152.843 32.5637 154.496 32.5637C155.667 32.5637 156.792 32.8977 157.871 33.5657L158.697 32.5637H159.523Z" stroke="black" stroke-opacity="0.2" stroke-width="4" stroke-linejoin="round" mask="url(#path-2-outside-1)"/>
<path d="M175.519 42.4954H176.486C176.298 44.1008 175.601 45.3489 174.394 46.2395C173.199 47.1301 171.81 47.5754 170.228 47.5754C168.095 47.5754 166.261 46.8606 164.726 45.4309C163.203 43.9895 162.441 42.2551 162.441 40.2278C162.441 38.177 163.22 36.3899 164.779 34.8665C166.349 33.3313 168.248 32.5637 170.474 32.5637C172.033 32.5637 173.369 32.9387 174.482 33.6887C175.607 34.427 176.169 35.3938 176.169 36.5891C176.169 37.2219 175.941 37.7668 175.484 38.2239C175.027 38.6692 174.423 38.8918 173.673 38.8918C173.005 38.8918 172.437 38.6692 171.968 38.2239C171.5 37.7786 171.265 37.2219 171.265 36.554C171.265 35.675 171.576 35.0715 172.197 34.7434C172.443 34.6028 172.566 34.4387 172.566 34.2512C172.566 34.052 172.367 33.8879 171.968 33.759C171.57 33.6301 171.119 33.5657 170.615 33.5657C169.736 33.5657 169.062 33.8762 168.593 34.4973C168.125 35.1184 167.89 36.7766 167.89 39.4719C167.89 42.2844 168.048 44.1418 168.365 45.0442C168.681 45.9348 169.49 46.3801 170.791 46.3801C173.181 46.3801 174.757 45.0852 175.519 42.4954Z" stroke="black" stroke-opacity="0.2" stroke-width="4" stroke-linejoin="round" mask="url(#path-2-outside-1)"/>
<path d="M185.626 47.5754C183.271 47.5754 181.39 46.8254 179.984 45.3254C178.578 43.8254 177.875 42.0793 177.875 40.0872C177.875 38.0715 178.589 36.3137 180.019 34.8137C181.449 33.3137 183.318 32.5637 185.626 32.5637C187.958 32.5637 189.839 33.3079 191.269 34.7961C192.71 36.2727 193.431 38.0364 193.431 40.0872C193.431 42.1262 192.716 43.884 191.287 45.3606C189.869 46.8372 187.982 47.5754 185.626 47.5754ZM185.626 33.4602C185.005 33.4602 184.507 33.6125 184.132 33.9172C183.757 34.2102 183.529 34.6672 183.447 35.2883C183.365 35.8977 183.324 37.4973 183.324 40.0872C183.324 42.6067 183.359 44.1536 183.429 44.7278C183.511 45.302 183.746 45.7708 184.132 46.134C184.531 46.4856 185.064 46.6614 185.732 46.6614C186.271 46.6614 186.74 46.509 187.138 46.2043C187.548 45.8879 187.794 45.3254 187.876 44.5168C187.958 43.6965 188 42.3137 188 40.3684C188 37.3333 187.882 35.4231 187.648 34.6379C187.414 33.8528 186.74 33.4602 185.626 33.4602Z" stroke="black" stroke-opacity="0.2" stroke-width="4" stroke-linejoin="round" mask="url(#path-2-outside-1)"/>
<path d="M223.578 47.136H203.785V45.9758H206.984V24.7063H203.785V23.5637H216.265V24.7063H212.75V45.9758H214.982C216.224 45.9758 217.138 45.9114 217.724 45.7825C218.322 45.6536 218.978 45.2786 219.693 44.6575C220.419 44.0247 221.029 43.2336 221.521 42.2844C222.025 41.3352 222.47 40.2864 222.857 39.1379H223.947L223.578 47.136Z" stroke="black" stroke-opacity="0.2" stroke-width="4" stroke-linejoin="round" mask="url(#path-2-outside-1)"/>
<path d="M239.626 39.2434H230.978V41.5286C230.978 43.3215 231.136 44.5637 231.453 45.2551C231.781 45.9348 232.525 46.2747 233.685 46.2747C234.705 46.2747 235.654 45.9465 236.533 45.2903C237.423 44.634 238.103 43.6145 238.572 42.2317H239.626C239.193 44.0129 238.39 45.3489 237.218 46.2395C236.046 47.1301 234.64 47.5754 233 47.5754C230.761 47.5754 228.968 46.8079 227.621 45.2727C226.285 43.7375 225.617 41.968 225.617 39.9641C225.617 38.0422 226.296 36.3313 227.656 34.8313C229.015 33.3196 230.714 32.5637 232.753 32.5637C234.511 32.5637 236.041 33.1145 237.341 34.2161C238.642 35.3176 239.404 36.9934 239.626 39.2434ZM230.978 38.1008H234.757V36.6243C234.757 35.3469 234.582 34.5208 234.23 34.1458C233.89 33.759 233.421 33.5657 232.824 33.5657C232.261 33.5657 231.81 33.7356 231.47 34.0754C231.142 34.4153 230.978 35.2766 230.978 36.6594V38.1008Z" stroke="black" stroke-opacity="0.2" stroke-width="4" stroke-linejoin="round" mask="url(#path-2-outside-1)"/>
<path d="M251.632 32.5637V36.9407H250.56C249.904 34.7375 248.486 33.636 246.306 33.636C245.486 33.636 244.777 33.8352 244.179 34.2336C243.582 34.6204 243.283 35.095 243.283 35.6575C243.283 36.1379 243.511 36.5071 243.968 36.7649C244.437 37.0227 245.621 37.2454 247.519 37.4329C249.417 37.6204 250.759 38.1243 251.544 38.9446C252.33 39.7649 252.722 40.8137 252.722 42.0911C252.722 43.6965 252.224 45.0149 251.228 46.0461C250.244 47.0657 248.908 47.5754 247.22 47.5754C245.556 47.5754 244.185 47.0833 243.107 46.0989L242 46.9954H241.191V41.845H242.246C243.007 44.8918 244.677 46.4153 247.255 46.4153C248.181 46.4153 248.978 46.1985 249.646 45.7649C250.326 45.3313 250.666 44.7805 250.666 44.1125C250.666 43.6438 250.484 43.2629 250.121 42.97C249.769 42.677 248.919 42.4543 247.572 42.302C246.236 42.1497 245.134 41.9446 244.267 41.6868C243.4 41.4172 242.691 40.9368 242.14 40.2454C241.589 39.5422 241.314 38.6106 241.314 37.4504C241.314 36.1145 241.783 34.9661 242.72 34.0051C243.658 33.0442 244.953 32.5637 246.605 32.5637C247.777 32.5637 248.902 32.8977 249.98 33.5657L250.806 32.5637H251.632Z" stroke="black" stroke-opacity="0.2" stroke-width="4" stroke-linejoin="round" mask="url(#path-2-outside-1)"/>
<path d="M267.628 42.4954H268.595C268.408 44.1008 267.71 45.3489 266.503 46.2395C265.308 47.1301 263.919 47.5754 262.337 47.5754C260.205 47.5754 258.371 46.8606 256.835 45.4309C255.312 43.9895 254.55 42.2551 254.55 40.2278C254.55 38.177 255.33 36.3899 256.888 34.8665C258.458 33.3313 260.357 32.5637 262.583 32.5637C264.142 32.5637 265.478 32.9387 266.591 33.6887C267.716 34.427 268.279 35.3938 268.279 36.5891C268.279 37.2219 268.05 37.7668 267.593 38.2239C267.136 38.6692 266.533 38.8918 265.783 38.8918C265.115 38.8918 264.546 38.6692 264.078 38.2239C263.609 37.7786 263.375 37.2219 263.375 36.554C263.375 35.675 263.685 35.0715 264.306 34.7434C264.552 34.6028 264.675 34.4387 264.675 34.2512C264.675 34.052 264.476 33.8879 264.078 33.759C263.679 33.6301 263.228 33.5657 262.724 33.5657C261.845 33.5657 261.171 33.8762 260.703 34.4973C260.234 35.1184 260 36.7766 260 39.4719C260 42.2844 260.158 44.1418 260.474 45.0442C260.791 45.9348 261.599 46.3801 262.9 46.3801C265.291 46.3801 266.867 45.0852 267.628 42.4954Z" stroke="black" stroke-opacity="0.2" stroke-width="4" stroke-linejoin="round" mask="url(#path-2-outside-1)"/>
<path d="M278.843 39.0676V35.9036C278.843 35.0481 278.738 34.4446 278.527 34.093C278.316 33.7415 277.777 33.5657 276.91 33.5657C276.218 33.5657 275.679 33.6711 275.292 33.8821C274.906 34.0813 274.712 34.2864 274.712 34.4973C274.712 34.6379 274.847 34.8489 275.117 35.1301C275.398 35.4114 275.539 35.7629 275.539 36.1848C275.539 36.7942 275.31 37.3215 274.853 37.7668C274.396 38.2004 273.822 38.4172 273.13 38.4172C272.498 38.4172 271.953 38.2122 271.496 37.802C271.039 37.3801 270.81 36.8704 270.81 36.2727C270.81 35.2415 271.419 34.3684 272.638 33.6536C273.869 32.927 275.568 32.5637 277.736 32.5637C279.412 32.5637 280.812 32.7747 281.937 33.1965C283.074 33.6184 283.642 34.5676 283.642 36.0442V43.4622C283.642 44.7395 284 45.3782 284.714 45.3782C284.914 45.3782 285.189 45.2668 285.541 45.0442L286.015 45.8352C285.019 46.9954 283.865 47.5754 282.552 47.5754C281.181 47.5754 280.033 46.8665 279.107 45.4485C277.572 46.8665 275.867 47.5754 273.992 47.5754C272.726 47.5754 271.73 47.2473 271.003 46.5911C270.277 45.9231 269.914 45.0969 269.914 44.1125C269.914 40.9836 272.89 39.302 278.843 39.0676ZM278.843 42.2844V39.9993C277.261 40.0579 276.16 40.3098 275.539 40.7551C274.917 41.1887 274.607 41.9211 274.607 42.9524C274.607 43.7493 274.8 44.3762 275.187 44.8333C275.574 45.2903 276.072 45.5188 276.681 45.5188C277.373 45.5188 277.906 45.2903 278.281 44.8333C278.656 44.3762 278.843 43.5266 278.843 42.2844Z" stroke="black" stroke-opacity="0.2" stroke-width="4" stroke-linejoin="round" mask="url(#path-2-outside-1)"/>
<path d="M293.978 32.5637V35.552H294.048C295.291 33.5598 297.031 32.5637 299.269 32.5637C300.265 32.5637 301.138 32.7747 301.888 33.1965C302.638 33.6184 303.113 34.052 303.312 34.4973C303.523 34.9309 303.628 35.593 303.628 36.4836V46.0637H305.632V47.136H296.791V46.0637H298.83V36.22C298.83 35.3293 298.707 34.7493 298.46 34.4797C298.226 34.2102 297.892 34.0754 297.458 34.0754C296.873 34.0754 296.146 34.4446 295.279 35.1829C294.412 35.9211 293.978 37.2161 293.978 39.0676V46.0637H296.035V47.136H287.14V46.0637H289.179V34.0754H287.175V32.9856H288.458C289.619 32.9856 290.767 32.9153 291.904 32.7747L293.468 32.5637H293.978Z" stroke="black" stroke-opacity="0.2" stroke-width="4" stroke-linejoin="round" mask="url(#path-2-outside-1)"/>
<path d="M314.896 47.5754C312.541 47.5754 310.66 46.8254 309.253 45.3254C307.847 43.8254 307.144 42.0793 307.144 40.0872C307.144 38.0715 307.859 36.3137 309.289 34.8137C310.718 33.3137 312.587 32.5637 314.896 32.5637C317.228 32.5637 319.109 33.3079 320.539 34.7961C321.98 36.2727 322.701 38.0364 322.701 40.0872C322.701 42.1262 321.986 43.884 320.556 45.3606C319.138 46.8372 317.251 47.5754 314.896 47.5754ZM314.896 33.4602C314.275 33.4602 313.777 33.6125 313.402 33.9172C313.027 34.2102 312.798 34.6672 312.716 35.2883C312.634 35.8977 312.593 37.4973 312.593 40.0872C312.593 42.6067 312.628 44.1536 312.699 44.7278C312.781 45.302 313.015 45.7708 313.402 46.134C313.8 46.4856 314.333 46.6614 315.001 46.6614C315.541 46.6614 316.009 46.509 316.408 46.2043C316.818 45.8879 317.064 45.3254 317.146 44.5168C317.228 43.6965 317.269 42.3137 317.269 40.3684C317.269 37.3333 317.152 35.4231 316.917 34.6379C316.683 33.8528 316.009 33.4602 314.896 33.4602Z" stroke="black" stroke-opacity="0.2" stroke-width="4" stroke-linejoin="round" mask="url(#path-2-outside-1)"/>
</svg>
