<?xml version="1.0"?>
<svg xmlns="http://www.w3.org/2000/svg" id="Layer_1" data-name="Layer 1" viewBox="0 0 512 512" width="512" height="512"><title>Wedding</title><path d="M342.022,166.142c-5.963-29.563-27.476-48.665-54.806-48.665-13.248,0-27.422,4.737-41.278,13.751-14.026-9.428-28.011-14.2-41.641-14.2-27.5,0-48.932,19.314-54.6,49.188-8.02,41.8,17,97.118,90.971,126.469.14.055.281.107.424.154a13.7,13.7,0,0,0,9.551,0q.239-.079.473-.175c73.946-29.959,98.944-85.1,90.915-126.464ZM245.86,277.529c-64.926-26.036-87.2-73.1-80.443-108.315,4.232-22.32,19.131-36.186,38.88-36.186,11.469,0,24.189,4.968,36.787,14.367a8,8,0,0,0,9.483.062c12.6-9.146,25.275-13.98,36.649-13.98,19.665,0,34.651,13.718,39.117,35.8C335.671,217.478,292.765,258.278,245.86,277.529Z"/><path d="M441.805,32H140.939c-27.845,0-50.5,22.444-50.5,49.941L88.364,385H25.659C21.241,385,18,388.776,18,393.194v18.658c0,18.155,6.686,35.215,19.536,48.04A68.466,68.466,0,0,0,82,479.673V480H333v-.393c1,.084,2.552.393,3.938.393h.189A68.1,68.1,0,0,0,405,411.844V124h81.341c4.418,0,7.659-4.031,7.659-8.449V84.715C494,55.767,470.729,32,441.805,32ZM85.681,464h-.056A51.891,51.891,0,0,1,34,411.844V401H269v10.711C269,432.565,278.44,451,293.26,464ZM389,411.835A52.1,52.1,0,0,1,337.118,464h-.172C308.292,464,285,440.382,285,411.719V393.194A8.14,8.14,0,0,0,277.033,385H104.365L106.44,82c0-18.73,15.477-34,34.5-34h263C394.739,58,389,70.657,389,84.875ZM478,108H405V84.862C405,64.708,421.429,48,441.568,48h.223C461.916,48,478,64.608,478,84.728Z"/></svg>
